<svg width="45" height="273" viewBox="0 0 45 273" fill="none" xmlns="http://www.w3.org/2000/svg">
<line x1="2" y1="134.5" x2="23" y2="134.5" stroke="black" stroke-width="3"/>
<line x1="1" y1="177.5" x2="22" y2="177.5" stroke="black" stroke-width="3"/>
<line x1="1" y1="156.5" x2="12" y2="156.5" stroke="black" stroke-width="3"/>
<line x1="1" y1="198.5" x2="12" y2="198.5" stroke="black" stroke-width="3"/>
<line x1="1" y1="110.5" x2="12" y2="110.5" stroke="black" stroke-width="3"/>
<line x1="2" y1="61.5" x2="13" y2="61.5" stroke="black" stroke-width="3"/>
<line x1="2" y1="87.5" x2="23" y2="87.5" stroke="black" stroke-width="3"/>
<line x1="2" y1="219.5" x2="23" y2="219.5" stroke="black" stroke-width="3"/>
<line x1="2" y1="38.5" x2="23" y2="38.5" stroke="black" stroke-width="3"/>
<path d="M22.5 1.5C8.1592 1.78407 1.67698 6.48749 2.49998 22V249.5C2.34348 266.98 8.59446 270.16 23 271C38.6332 269.639 42.9038 265.05 43 249.5V22C43.9369 6.56002 38.4293 1.99198 22.5 1.5Z" stroke="black" stroke-width="3" stroke-linecap="round" stroke-linejoin="round"/>
</svg>
