<svg width="586" height="108" viewBox="0 0 586 108" fill="none" xmlns="http://www.w3.org/2000/svg">
<line x1="32.9973" y1="92.5" x2="585.996" y2="91.5" stroke="white" stroke-width="3"/>
<path d="M116.875 54V12.7656H127.722C132.159 12.7656 135.51 13.6719 137.775 15.4844C140.06 17.278 141.202 19.8929 141.202 23.3291C141.202 25.8213 140.57 27.8887 139.305 29.5312C138.04 31.1738 136.256 32.2217 133.952 32.6748C136.558 33.0146 138.729 34.1475 140.466 36.0732C142.203 37.9801 143.071 40.1702 143.071 42.6436C143.071 46.1553 141.929 48.9307 139.645 50.9697C137.379 52.9899 134.216 54 130.157 54H116.875ZM118.404 33.6377V52.4707H130.327C133.82 52.4707 136.558 51.6117 138.54 49.8936C140.541 48.1566 141.542 45.7588 141.542 42.7002C141.542 40.0947 140.579 37.9518 138.653 36.2715C136.728 34.5723 134.15 33.6943 130.922 33.6377H118.404ZM118.404 32.1084H128.288C132.045 32.1084 134.877 31.391 136.784 29.9561C138.691 28.5023 139.645 26.2555 139.645 23.2158C139.645 17.363 135.784 14.3893 128.062 14.2949H118.404V32.1084ZM154.06 12.7656L171.023 51.7627L188.044 12.7656H190.281V54H188.752V15.0312L171.646 54H170.429L153.408 15.2295V54H151.879V12.7656H154.06ZM226.305 44.1162C226.305 42.3604 225.889 40.8783 225.059 39.6699C224.247 38.4427 222.953 37.3665 221.179 36.4414C219.423 35.4974 216.761 34.5345 213.192 33.5527C209.624 32.571 206.943 31.5798 205.149 30.5791C203.375 29.5785 202.072 28.4173 201.241 27.0957C200.41 25.7741 199.995 24.1693 199.995 22.2812C199.995 19.2793 201.26 16.8532 203.79 15.0029C206.32 13.1338 209.615 12.1992 213.674 12.1992C216.317 12.1992 218.687 12.7184 220.782 13.7568C222.897 14.7764 224.53 16.2207 225.682 18.0898C226.833 19.9401 227.409 22.0358 227.409 24.377H225.88C225.88 21.2995 224.747 18.7601 222.481 16.7588C220.216 14.7386 217.28 13.7285 213.674 13.7285C210.049 13.7285 207.113 14.5404 204.866 16.1641C202.638 17.7689 201.524 19.7891 201.524 22.2246C201.524 24.6979 202.497 26.6898 204.441 28.2002C206.386 29.7106 209.596 31.0511 214.07 32.2217C218.545 33.3734 221.821 34.7139 223.897 36.2432C226.541 38.1878 227.862 40.7933 227.862 44.0596C227.862 46.1364 227.277 47.9772 226.106 49.582C224.936 51.168 223.274 52.3952 221.122 53.2637C218.97 54.1322 216.553 54.5664 213.872 54.5664C210.889 54.5664 208.208 54.0755 205.829 53.0938C203.45 52.0931 201.657 50.6771 200.448 48.8457C199.259 47.0143 198.664 44.8525 198.664 42.3604H200.193C200.193 45.7399 201.458 48.3643 203.988 50.2334C206.518 52.1025 209.813 53.0371 213.872 53.0371C217.478 53.0371 220.452 52.2158 222.793 50.5732C225.134 48.9118 226.305 46.7594 226.305 44.1162ZM251.368 52.4707H272.523V54H249.811V12.7656H251.368V52.4707ZM285.636 49.9785L286.457 52.4707L287.278 49.9785L301.127 12.7656H302.798L287.392 54H285.522L270.116 12.7656H271.787L285.636 49.9785Z" fill="#39EADF"/>
</svg>
